<svg width="220" height="100" viewBox="0 0 220 100" fill="none" xmlns="http://www.w3.org/2000/svg">
<rect width="220" height="100" rx="5" fill="#CCFE00"/>
<path d="M14.044 11.6H20.824V13.148H15.976V14.876H18.304C19.32 14.876 20.092 15.088 20.62 15.512C21.156 15.936 21.424 16.548 21.424 17.348C21.424 18.188 21.128 18.84 20.536 19.304C19.944 19.768 19.108 20 18.028 20H14.044V11.6ZM17.92 18.56C18.416 18.56 18.796 18.464 19.06 18.272C19.324 18.072 19.456 17.784 19.456 17.408C19.456 16.672 18.944 16.304 17.92 16.304H15.976V18.56H17.92ZM25.7834 20.096C25.1034 20.096 24.4914 19.956 23.9474 19.676C23.4114 19.388 22.9914 18.992 22.6874 18.488C22.3834 17.984 22.2314 17.412 22.2314 16.772C22.2314 16.132 22.3834 15.56 22.6874 15.056C22.9914 14.552 23.4114 14.16 23.9474 13.88C24.4914 13.592 25.1034 13.448 25.7834 13.448C26.4634 13.448 27.0714 13.592 27.6074 13.88C28.1434 14.16 28.5634 14.552 28.8674 15.056C29.1714 15.56 29.3234 16.132 29.3234 16.772C29.3234 17.412 29.1714 17.984 28.8674 18.488C28.5634 18.992 28.1434 19.388 27.6074 19.676C27.0714 19.956 26.4634 20.096 25.7834 20.096ZM25.7834 18.56C26.2634 18.56 26.6554 18.4 26.9594 18.08C27.2714 17.752 27.4274 17.316 27.4274 16.772C27.4274 16.228 27.2714 15.796 26.9594 15.476C26.6554 15.148 26.2634 14.984 25.7834 14.984C25.3034 14.984 24.9074 15.148 24.5954 15.476C24.2834 15.796 24.1274 16.228 24.1274 16.772C24.1274 17.316 24.2834 17.752 24.5954 18.08C24.9074 18.4 25.3034 18.56 25.7834 18.56ZM36.7092 13.544V20H34.8372V15.08H32.7972L32.7372 16.22C32.7052 17.068 32.6252 17.772 32.4972 18.332C32.3692 18.892 32.1612 19.332 31.8732 19.652C31.5852 19.972 31.1852 20.132 30.6732 20.132C30.4012 20.132 30.0772 20.084 29.7012 19.988L29.7972 18.452C29.9252 18.468 30.0172 18.476 30.0732 18.476C30.3532 18.476 30.5612 18.376 30.6972 18.176C30.8412 17.968 30.9372 17.708 30.9852 17.396C31.0332 17.076 31.0692 16.656 31.0932 16.136L31.1892 13.544H36.7092ZM41.4734 20.18C40.4494 20.18 39.6734 19.952 39.1454 19.496C38.6254 19.04 38.3654 18.368 38.3654 17.48V13.544H40.2254V15.728C40.4254 15.584 40.6814 15.472 40.9934 15.392C41.3134 15.312 41.6694 15.272 42.0614 15.272C42.8694 15.272 43.5014 15.472 43.9574 15.872C44.4134 16.272 44.6414 16.856 44.6414 17.624C44.6414 18.448 44.3574 19.08 43.7894 19.52C43.2294 19.96 42.4574 20.18 41.4734 20.18ZM41.4734 18.86C41.8734 18.86 42.1814 18.752 42.3974 18.536C42.6214 18.32 42.7334 18.028 42.7334 17.66C42.7334 17.308 42.6254 17.032 42.4094 16.832C42.2014 16.632 41.9014 16.532 41.5094 16.532C41.2214 16.532 40.9654 16.584 40.7414 16.688C40.5174 16.792 40.3454 16.94 40.2254 17.132V17.66C40.2254 18.036 40.3334 18.332 40.5494 18.548C40.7734 18.756 41.0814 18.86 41.4734 18.86ZM55.6973 13.544V20H45.8453V13.544H47.7053V18.464H49.8533V13.544H51.7133V18.464H53.8373V13.544H55.6973ZM60.7098 18.596C61.0458 18.596 61.3418 18.548 61.5978 18.452C61.8618 18.348 62.1058 18.188 62.3298 17.972L63.3258 19.052C62.7178 19.748 61.8298 20.096 60.6618 20.096C59.9338 20.096 59.2898 19.956 58.7298 19.676C58.1698 19.388 57.7378 18.992 57.4338 18.488C57.1298 17.984 56.9778 17.412 56.9778 16.772C56.9778 16.14 57.1258 15.572 57.4218 15.068C57.7258 14.556 58.1378 14.16 58.6578 13.88C59.1858 13.592 59.7778 13.448 60.4338 13.448C61.0498 13.448 61.6098 13.58 62.1138 13.844C62.6178 14.1 63.0178 14.476 63.3138 14.972C63.6178 15.46 63.7698 16.04 63.7698 16.712L58.9938 17.636C59.1298 17.956 59.3418 18.196 59.6298 18.356C59.9258 18.516 60.2858 18.596 60.7098 18.596ZM60.4338 14.864C59.9618 14.864 59.5778 15.016 59.2818 15.32C58.9858 15.624 58.8298 16.044 58.8138 16.58L61.9578 15.968C61.8698 15.632 61.6898 15.364 61.4178 15.164C61.1458 14.964 60.8178 14.864 60.4338 14.864ZM74.9305 13.544V18.92C74.9305 20.104 74.6305 20.984 74.0305 21.56C73.4305 22.136 72.5585 22.424 71.4145 22.424C70.8065 22.424 70.2305 22.348 69.6865 22.196C69.1505 22.044 68.6985 21.824 68.3305 21.536L69.0745 20.192C69.3465 20.416 69.6785 20.592 70.0705 20.72C70.4625 20.848 70.8585 20.912 71.2585 20.912C71.8825 20.912 72.3385 20.768 72.6265 20.48C72.9145 20.192 73.0585 19.752 73.0585 19.16V18.944C72.8185 19.184 72.5345 19.368 72.2065 19.496C71.8785 19.624 71.5265 19.688 71.1505 19.688C70.3025 19.688 69.6305 19.448 69.1345 18.968C68.6385 18.48 68.3905 17.752 68.3905 16.784V13.544H70.2625V16.508C70.2625 17.556 70.6985 18.08 71.5705 18.08C72.0185 18.08 72.3785 17.936 72.6505 17.648C72.9225 17.352 73.0585 16.916 73.0585 16.34V13.544H74.9305ZM82.5088 13.544V20H80.6368V17.6C80.0928 17.872 79.4928 18.008 78.8368 18.008C77.9648 18.008 77.3048 17.812 76.8568 17.42C76.4168 17.02 76.1968 16.404 76.1968 15.572V13.544H78.0688V15.452C78.0688 15.844 78.1688 16.128 78.3688 16.304C78.5768 16.48 78.8728 16.568 79.2568 16.568C79.7448 16.568 80.2048 16.464 80.6368 16.256V13.544H82.5088ZM90.8223 13.544V20H89.0343V19.256C88.5703 19.816 87.8983 20.096 87.0183 20.096C86.4103 20.096 85.8583 19.96 85.3623 19.688C84.8743 19.416 84.4903 19.028 84.2103 18.524C83.9303 18.02 83.7903 17.436 83.7903 16.772C83.7903 16.108 83.9303 15.524 84.2103 15.02C84.4903 14.516 84.8743 14.128 85.3623 13.856C85.8583 13.584 86.4103 13.448 87.0183 13.448C87.8423 13.448 88.4863 13.708 88.9503 14.228V13.544H90.8223ZM87.3423 18.56C87.8143 18.56 88.2063 18.4 88.5183 18.08C88.8303 17.752 88.9863 17.316 88.9863 16.772C88.9863 16.228 88.8303 15.796 88.5183 15.476C88.2063 15.148 87.8143 14.984 87.3423 14.984C86.8623 14.984 86.4663 15.148 86.1543 15.476C85.8423 15.796 85.6863 16.228 85.6863 16.772C85.6863 17.316 85.8423 17.752 86.1543 18.08C86.4663 18.4 86.8623 18.56 87.3423 18.56ZM95.6634 20.096C94.9754 20.096 94.3554 19.956 93.8034 19.676C93.2594 19.388 92.8314 18.992 92.5194 18.488C92.2154 17.984 92.0634 17.412 92.0634 16.772C92.0634 16.132 92.2154 15.56 92.5194 15.056C92.8314 14.552 93.2594 14.16 93.8034 13.88C94.3554 13.592 94.9754 13.448 95.6634 13.448C96.3434 13.448 96.9354 13.592 97.4394 13.88C97.9514 14.16 98.3234 14.564 98.5554 15.092L97.1034 15.872C96.7674 15.28 96.2834 14.984 95.6514 14.984C95.1634 14.984 94.7594 15.144 94.4394 15.464C94.1194 15.784 93.9594 16.22 93.9594 16.772C93.9594 17.324 94.1194 17.76 94.4394 18.08C94.7594 18.4 95.1634 18.56 95.6514 18.56C96.2914 18.56 96.7754 18.264 97.1034 17.672L98.5554 18.464C98.3234 18.976 97.9514 19.376 97.4394 19.664C96.9354 19.952 96.3434 20.096 95.6634 20.096ZM107.949 13.448C108.757 13.448 109.397 13.688 109.869 14.168C110.349 14.64 110.589 15.352 110.589 16.304V20H108.717V16.592C108.717 16.08 108.609 15.7 108.393 15.452C108.185 15.196 107.885 15.068 107.493 15.068C107.053 15.068 106.705 15.212 106.449 15.5C106.193 15.78 106.065 16.2 106.065 16.76V20H104.193V16.592C104.193 15.576 103.785 15.068 102.969 15.068C102.537 15.068 102.193 15.212 101.937 15.5C101.681 15.78 101.553 16.2 101.553 16.76V20H99.681V13.544H101.469V14.288C101.709 14.016 102.001 13.808 102.345 13.664C102.697 13.52 103.081 13.448 103.497 13.448C103.953 13.448 104.365 13.54 104.733 13.724C105.101 13.9 105.397 14.16 105.621 14.504C105.885 14.168 106.217 13.908 106.617 13.724C107.025 13.54 107.469 13.448 107.949 13.448ZM112.22 13.544H114.08V16.064H116.888V13.544H118.76V20H116.888V17.588H114.08V20H112.22V13.544ZM126.924 13.544V20H125.136V19.244C124.896 19.524 124.6 19.736 124.248 19.88C123.904 20.024 123.536 20.096 123.144 20.096C122.296 20.096 121.62 19.852 121.116 19.364C120.62 18.876 120.372 18.152 120.372 17.192V13.544H122.244V16.916C122.244 17.956 122.68 18.476 123.552 18.476C124.008 18.476 124.372 18.332 124.644 18.044C124.916 17.748 125.052 17.312 125.052 16.736V13.544H126.924ZM131.553 17.552H130.581V20H128.709V13.544H130.581V16.052H131.589L133.341 13.544H135.333L133.077 16.64L135.489 20H133.281L131.553 17.552ZM139.233 20.096C138.553 20.096 137.941 19.956 137.397 19.676C136.861 19.388 136.441 18.992 136.137 18.488C135.833 17.984 135.681 17.412 135.681 16.772C135.681 16.132 135.833 15.56 136.137 15.056C136.441 14.552 136.861 14.16 137.397 13.88C137.941 13.592 138.553 13.448 139.233 13.448C139.913 13.448 140.521 13.592 141.057 13.88C141.593 14.16 142.013 14.552 142.317 15.056C142.621 15.56 142.773 16.132 142.773 16.772C142.773 17.412 142.621 17.984 142.317 18.488C142.013 18.992 141.593 19.388 141.057 19.676C140.521 19.956 139.913 20.096 139.233 20.096ZM139.233 18.56C139.713 18.56 140.105 18.4 140.409 18.08C140.721 17.752 140.877 17.316 140.877 16.772C140.877 16.228 140.721 15.796 140.409 15.476C140.105 15.148 139.713 14.984 139.233 14.984C138.753 14.984 138.357 15.148 138.045 15.476C137.733 15.796 137.577 16.228 137.577 16.772C137.577 17.316 137.733 17.752 138.045 18.08C138.357 18.4 138.753 18.56 139.233 18.56ZM148.992 16.628C149.752 16.884 150.132 17.396 150.132 18.164C150.132 18.748 149.912 19.2 149.472 19.52C149.032 19.84 148.376 20 147.504 20H144.06V13.544H147.36C148.168 13.544 148.8 13.692 149.256 13.988C149.712 14.276 149.94 14.684 149.94 15.212C149.94 15.532 149.856 15.816 149.688 16.064C149.528 16.304 149.296 16.492 148.992 16.628ZM145.776 16.196H147.192C147.848 16.196 148.176 15.964 148.176 15.5C148.176 15.044 147.848 14.816 147.192 14.816H145.776V16.196ZM147.348 18.728C148.036 18.728 148.38 18.492 148.38 18.02C148.38 17.772 148.3 17.592 148.14 17.48C147.98 17.36 147.728 17.3 147.384 17.3H145.776V18.728H147.348ZM154.647 15.872H158.043V17.372H154.647V15.872ZM20.2 35V31.136L18.268 34.376H17.476L15.592 31.124V35H13.9V28.544H15.856L17.92 32.276L20.116 28.544H21.868L21.892 35H20.2ZM26.9012 33.596C27.2372 33.596 27.5332 33.548 27.7892 33.452C28.0532 33.348 28.2972 33.188 28.5212 32.972L29.5172 34.052C28.9092 34.748 28.0212 35.096 26.8532 35.096C26.1252 35.096 25.4812 34.956 24.9212 34.676C24.3612 34.388 23.9292 33.992 23.6252 33.488C23.3212 32.984 23.1692 32.412 23.1692 31.772C23.1692 31.14 23.3172 30.572 23.6132 30.068C23.9172 29.556 24.3292 29.16 24.8492 28.88C25.3772 28.592 25.9692 28.448 26.6252 28.448C27.2412 28.448 27.8012 28.58 28.3052 28.844C28.8092 29.1 29.2092 29.476 29.5052 29.972C29.8092 30.46 29.9612 31.04 29.9612 31.712L25.1852 32.636C25.3212 32.956 25.5332 33.196 25.8212 33.356C26.1172 33.516 26.4772 33.596 26.9012 33.596ZM26.6252 29.864C26.1532 29.864 25.7692 30.016 25.4732 30.32C25.1772 30.624 25.0212 31.044 25.0052 31.58L28.1492 30.968C28.0612 30.632 27.8812 30.364 27.6092 30.164C27.3372 29.964 27.0092 29.864 26.6252 29.864ZM31.2555 28.544H33.1155V31.064H35.9235V28.544H37.7955V35H35.9235V32.588H33.1155V35H31.2555V28.544ZM42.5515 35.18C41.5275 35.18 40.7515 34.952 40.2235 34.496C39.7035 34.04 39.4435 33.368 39.4435 32.48V28.544H41.3035V30.728C41.5035 30.584 41.7595 30.472 42.0715 30.392C42.3915 30.312 42.7475 30.272 43.1395 30.272C43.9475 30.272 44.5795 30.472 45.0355 30.872C45.4915 31.272 45.7195 31.856 45.7195 32.624C45.7195 33.448 45.4355 34.08 44.8675 34.52C44.3075 34.96 43.5355 35.18 42.5515 35.18ZM42.5515 33.86C42.9515 33.86 43.2595 33.752 43.4755 33.536C43.6995 33.32 43.8115 33.028 43.8115 32.66C43.8115 32.308 43.7035 32.032 43.4875 31.832C43.2795 31.632 42.9795 31.532 42.5875 31.532C42.2995 31.532 42.0435 31.584 41.8195 31.688C41.5955 31.792 41.4235 31.94 41.3035 32.132V32.66C41.3035 33.036 41.4115 33.332 41.6275 33.548C41.8515 33.756 42.1595 33.86 42.5515 33.86ZM56.7754 28.544V35H46.9234V28.544H48.7834V33.464H50.9314V28.544H52.7914V33.464H54.9154V28.544H56.7754ZM61.7879 33.596C62.1239 33.596 62.4199 33.548 62.6759 33.452C62.9399 33.348 63.1839 33.188 63.4079 32.972L64.4039 34.052C63.7959 34.748 62.9079 35.096 61.7399 35.096C61.0119 35.096 60.3679 34.956 59.8079 34.676C59.2479 34.388 58.8159 33.992 58.5119 33.488C58.2079 32.984 58.0559 32.412 58.0559 31.772C58.0559 31.14 58.2039 30.572 58.4999 30.068C58.8039 29.556 59.2159 29.16 59.7359 28.88C60.2639 28.592 60.8559 28.448 61.5119 28.448C62.1279 28.448 62.6879 28.58 63.1919 28.844C63.6959 29.1 64.0959 29.476 64.3919 29.972C64.6959 30.46 64.8479 31.04 64.8479 31.712L60.0719 32.636C60.2079 32.956 60.4199 33.196 60.7079 33.356C61.0039 33.516 61.3639 33.596 61.7879 33.596ZM61.5119 29.864C61.0399 29.864 60.6559 30.016 60.3599 30.32C60.0639 30.624 59.9079 31.044 59.8919 31.58L63.0359 30.968C62.9479 30.632 62.7679 30.364 62.4959 30.164C62.2239 29.964 61.8959 29.864 61.5119 29.864ZM76.0086 28.544V33.92C76.0086 35.104 75.7086 35.984 75.1086 36.56C74.5086 37.136 73.6366 37.424 72.4926 37.424C71.8846 37.424 71.3086 37.348 70.7646 37.196C70.2286 37.044 69.7766 36.824 69.4086 36.536L70.1526 35.192C70.4246 35.416 70.7566 35.592 71.1486 35.72C71.5406 35.848 71.9366 35.912 72.3366 35.912C72.9606 35.912 73.4166 35.768 73.7046 35.48C73.9926 35.192 74.1366 34.752 74.1366 34.16V33.944C73.8966 34.184 73.6126 34.368 73.2846 34.496C72.9566 34.624 72.6046 34.688 72.2286 34.688C71.3806 34.688 70.7086 34.448 70.2126 33.968C69.7166 33.48 69.4686 32.752 69.4686 31.784V28.544H71.3406V31.508C71.3406 32.556 71.7766 33.08 72.6486 33.08C73.0966 33.08 73.4566 32.936 73.7286 32.648C74.0006 32.352 74.1366 31.916 74.1366 31.34V28.544H76.0086ZM80.8509 35.096C80.1629 35.096 79.5429 34.956 78.9909 34.676C78.4469 34.388 78.0189 33.992 77.7069 33.488C77.4029 32.984 77.2509 32.412 77.2509 31.772C77.2509 31.132 77.4029 30.56 77.7069 30.056C78.0189 29.552 78.4469 29.16 78.9909 28.88C79.5429 28.592 80.1629 28.448 80.8509 28.448C81.5309 28.448 82.1229 28.592 82.6269 28.88C83.1389 29.16 83.5109 29.564 83.7429 30.092L82.2909 30.872C81.9549 30.28 81.4709 29.984 80.8389 29.984C80.3509 29.984 79.9469 30.144 79.6269 30.464C79.3069 30.784 79.1469 31.22 79.1469 31.772C79.1469 32.324 79.3069 32.76 79.6269 33.08C79.9469 33.4 80.3509 33.56 80.8389 33.56C81.4789 33.56 81.9629 33.264 82.2909 32.672L83.7429 33.464C83.5109 33.976 83.1389 34.376 82.6269 34.664C82.1229 34.952 81.5309 35.096 80.8509 35.096ZM91.2525 28.544V35H89.4645V34.244C89.2245 34.524 88.9285 34.736 88.5765 34.88C88.2325 35.024 87.8645 35.096 87.4725 35.096C86.6245 35.096 85.9485 34.852 85.4445 34.364C84.9485 33.876 84.7005 33.152 84.7005 32.192V28.544H86.5725V31.916C86.5725 32.956 87.0085 33.476 87.8805 33.476C88.3365 33.476 88.7005 33.332 88.9725 33.044C89.2445 32.748 89.3805 32.312 89.3805 31.736V28.544H91.2525ZM99.2287 28.544V35H97.3567V30.08H95.3167L95.2567 31.22C95.2247 32.068 95.1447 32.772 95.0167 33.332C94.8887 33.892 94.6807 34.332 94.3927 34.652C94.1047 34.972 93.7047 35.132 93.1927 35.132C92.9207 35.132 92.5967 35.084 92.2207 34.988L92.3167 33.452C92.4447 33.468 92.5367 33.476 92.5927 33.476C92.8727 33.476 93.0807 33.376 93.2167 33.176C93.3607 32.968 93.4567 32.708 93.5047 32.396C93.5527 32.076 93.5887 31.656 93.6127 31.136L93.7087 28.544H99.2287ZM107.401 28.544V35H105.613V34.244C105.373 34.524 105.077 34.736 104.725 34.88C104.381 35.024 104.013 35.096 103.621 35.096C102.773 35.096 102.097 34.852 101.593 34.364C101.097 33.876 100.849 33.152 100.849 32.192V28.544H102.721V31.916C102.721 32.956 103.157 33.476 104.029 33.476C104.485 33.476 104.849 33.332 105.121 33.044C105.393 32.748 105.529 32.312 105.529 31.736V28.544H107.401ZM115.557 28.544V35H113.769V34.244C113.529 34.524 113.233 34.736 112.881 34.88C112.537 35.024 112.169 35.096 111.777 35.096C110.929 35.096 110.253 34.852 109.749 34.364C109.253 33.876 109.005 33.152 109.005 32.192V28.544H110.877V31.916C110.877 32.956 111.313 33.476 112.185 33.476C112.641 33.476 113.005 33.332 113.277 33.044C113.549 32.748 113.685 32.312 113.685 31.736V28.544H115.557ZM112.233 27.848C110.825 27.848 110.117 27.228 110.109 25.988H111.333C111.341 26.268 111.417 26.488 111.561 26.648C111.713 26.8 111.933 26.876 112.221 26.876C112.509 26.876 112.729 26.8 112.881 26.648C113.041 26.488 113.121 26.268 113.121 25.988H114.369C114.361 27.228 113.649 27.848 112.233 27.848Z" fill="#EF15B5"/>
<path d="M17.24 54.08C16.5333 54.08 15.8967 53.9267 15.33 53.62C14.7633 53.3067 14.3167 52.8767 13.99 52.33C13.67 51.7833 13.51 51.1733 13.51 50.5C13.51 49.8267 13.67 49.2167 13.99 48.67C14.3167 48.1233 14.7633 47.6967 15.33 47.39C15.8967 47.0767 16.5333 46.92 17.24 46.92C17.94 46.92 18.5733 47.0767 19.14 47.39C19.7067 47.6967 20.15 48.1233 20.47 48.67C20.79 49.21 20.95 49.82 20.95 50.5C20.95 51.18 20.79 51.7933 20.47 52.34C20.15 52.88 19.7067 53.3067 19.14 53.62C18.5733 53.9267 17.94 54.08 17.24 54.08ZM17.24 53.19C17.7533 53.19 18.2133 53.0733 18.62 52.84C19.0333 52.6067 19.3567 52.2867 19.59 51.88C19.83 51.4667 19.95 51.0067 19.95 50.5C19.95 49.9933 19.83 49.5367 19.59 49.13C19.3567 48.7167 19.0333 48.3933 18.62 48.16C18.2133 47.9267 17.7533 47.81 17.24 47.81C16.7267 47.81 16.26 47.9267 15.84 48.16C15.4267 48.3933 15.1 48.7167 14.86 49.13C14.6267 49.5367 14.51 49.9933 14.51 50.5C14.51 51.0067 14.6267 51.4667 14.86 51.88C15.1 52.2867 15.4267 52.6067 15.84 52.84C16.26 53.0733 16.7267 53.19 17.24 53.19ZM24.9266 48.65C25.4599 48.65 25.9299 48.7633 26.3366 48.99C26.7499 49.2167 27.0666 49.5367 27.2866 49.95C27.5132 50.3567 27.6266 50.8267 27.6266 51.36C27.6266 51.8867 27.5166 52.3567 27.2966 52.77C27.0766 53.1767 26.7699 53.4933 26.3766 53.72C25.9832 53.9467 25.5332 54.06 25.0266 54.06C24.6266 54.06 24.2666 53.99 23.9466 53.85C23.6266 53.7033 23.3599 53.4933 23.1466 53.22V55.94H22.1766V51.37C22.1766 50.8367 22.2899 50.3633 22.5166 49.95C22.7499 49.5367 23.0732 49.2167 23.4866 48.99C23.9066 48.7633 24.3866 48.65 24.9266 48.65ZM24.8966 53.22C25.2366 53.22 25.5432 53.1433 25.8166 52.99C26.0899 52.83 26.2999 52.61 26.4466 52.33C26.5999 52.0433 26.6766 51.72 26.6766 51.36C26.6766 51 26.5999 50.68 26.4466 50.4C26.2999 50.1133 26.0899 49.89 25.8166 49.73C25.5499 49.57 25.2432 49.49 24.8966 49.49C24.3699 49.49 23.9432 49.6633 23.6166 50.01C23.2899 50.35 23.1266 50.7967 23.1266 51.35C23.1266 51.7167 23.1999 52.0433 23.3466 52.33C23.4999 52.61 23.7099 52.83 23.9766 52.99C24.2432 53.1433 24.5499 53.22 24.8966 53.22ZM32.9277 49.54H29.9877V54H29.0277V48.7H32.9277V49.54ZM38.6561 48.7V54H37.7361V53.16C37.5228 53.4533 37.2528 53.6767 36.9261 53.83C36.5994 53.9833 36.2394 54.06 35.8461 54.06C35.3328 54.06 34.8728 53.9467 34.4661 53.72C34.0594 53.4933 33.7394 53.1767 33.5061 52.77C33.2794 52.3567 33.1661 51.8833 33.1661 51.35C33.1661 50.8167 33.2794 50.3467 33.5061 49.94C33.7394 49.5333 34.0594 49.2167 34.4661 48.99C34.8728 48.7633 35.3328 48.65 35.8461 48.65C36.2261 48.65 36.5761 48.7233 36.8961 48.87C37.2161 49.01 37.4828 49.22 37.6961 49.5V48.7H38.6561ZM35.9261 53.22C36.2594 53.22 36.5628 53.1433 36.8361 52.99C37.1094 52.83 37.3228 52.61 37.4761 52.33C37.6294 52.0433 37.7061 51.7167 37.7061 51.35C37.7061 50.9833 37.6294 50.66 37.4761 50.38C37.3228 50.0933 37.1094 49.8733 36.8361 49.72C36.5628 49.5667 36.2594 49.49 35.9261 49.49C35.5861 49.49 35.2794 49.5667 35.0061 49.72C34.7394 49.8733 34.5261 50.0933 34.3661 50.38C34.2128 50.66 34.1361 50.9833 34.1361 51.35C34.1361 51.7167 34.2128 52.0433 34.3661 52.33C34.5261 52.61 34.7394 52.83 35.0061 52.99C35.2794 53.1433 35.5861 53.22 35.9261 53.22ZM40.4925 48.7H41.4525V50.95H44.4725V48.7H45.4325V54H44.4725V51.78H41.4525V54H40.4925V48.7ZM52.1291 48.7V54H51.2091V53.22C51.0158 53.4867 50.7625 53.6933 50.4491 53.84C50.1358 53.9867 49.7925 54.06 49.4191 54.06C48.7125 54.06 48.1558 53.8667 47.7491 53.48C47.3425 53.0867 47.1391 52.51 47.1391 51.75V48.7H48.0991V51.64C48.0991 52.1533 48.2225 52.5433 48.4691 52.81C48.7158 53.07 49.0691 53.2 49.5291 53.2C50.0358 53.2 50.4358 53.0467 50.7291 52.74C51.0225 52.4333 51.1691 52 51.1691 51.44V48.7H52.1291ZM56.7805 51.24C57.1338 51.3333 57.4071 51.4833 57.6005 51.69C57.7938 51.8967 57.8905 52.1533 57.8905 52.46C57.8905 52.7733 57.7838 53.0533 57.5705 53.3C57.3571 53.54 57.0605 53.73 56.6805 53.87C56.3071 54.0033 55.8871 54.07 55.4205 54.07C55.0271 54.07 54.6405 54.02 54.2605 53.92C53.8871 53.8133 53.5538 53.6633 53.2605 53.47L53.5505 52.74C53.8038 52.9 54.0938 53.0267 54.4205 53.12C54.7471 53.2067 55.0771 53.25 55.4105 53.25C55.8638 53.25 56.2238 53.1733 56.4905 53.02C56.7638 52.86 56.9005 52.6467 56.9005 52.38C56.9005 52.1333 56.7905 51.9433 56.5705 51.81C56.3571 51.6767 56.0538 51.61 55.6605 51.61H54.6905V50.92H55.5905C55.9505 50.92 56.2338 50.8567 56.4405 50.73C56.6471 50.6033 56.7505 50.43 56.7505 50.21C56.7505 49.97 56.6271 49.7833 56.3805 49.65C56.1405 49.5167 55.8138 49.45 55.4005 49.45C54.8738 49.45 54.3171 49.5867 53.7305 49.86L53.4705 49.12C54.1171 48.7933 54.7938 48.63 55.5005 48.63C55.9271 48.63 56.3105 48.69 56.6505 48.81C56.9905 48.93 57.2571 49.1 57.4505 49.32C57.6438 49.54 57.7405 49.79 57.7405 50.07C57.7405 50.33 57.6538 50.5633 57.4805 50.77C57.3071 50.9767 57.0738 51.1333 56.7805 51.24ZM64.2699 48.7V53.28C64.2699 54.2067 64.0533 54.89 63.6199 55.33C63.1866 55.7767 62.5366 56 61.6699 56C61.1966 56 60.7433 55.93 60.3099 55.79C59.8833 55.6567 59.5333 55.4633 59.2599 55.21L59.7299 54.47C59.9633 54.6833 60.2433 54.85 60.5699 54.97C60.9033 55.09 61.2533 55.15 61.6199 55.15C62.1999 55.15 62.6266 55.0033 62.8999 54.71C63.1733 54.4233 63.3099 53.98 63.3099 53.38V52.99C63.1166 53.2433 62.8666 53.44 62.5599 53.58C62.2533 53.7133 61.9199 53.78 61.5599 53.78C60.8533 53.78 60.2966 53.5867 59.8899 53.2C59.4833 52.8133 59.2799 52.24 59.2799 51.48V48.7H60.2399V51.37C60.2399 51.8767 60.3633 52.2633 60.6099 52.53C60.8566 52.79 61.2099 52.92 61.6699 52.92C62.1766 52.92 62.5766 52.7667 62.8699 52.46C63.1633 52.1533 63.3099 51.72 63.3099 51.16V48.7H64.2699ZM70.9475 48.7V54H70.0275V53.22C69.8342 53.4867 69.5808 53.6933 69.2675 53.84C68.9542 53.9867 68.6108 54.06 68.2375 54.06C67.5308 54.06 66.9742 53.8667 66.5675 53.48C66.1608 53.0867 65.9575 52.51 65.9575 51.75V48.7H66.9175V51.64C66.9175 52.1533 67.0408 52.5433 67.2875 52.81C67.5342 53.07 67.8875 53.2 68.3475 53.2C68.8542 53.2 69.2542 53.0467 69.5475 52.74C69.8408 52.4333 69.9875 52 69.9875 51.44V48.7H70.9475ZM68.4475 48.01C67.9542 48.01 67.5708 47.8933 67.2975 47.66C67.0242 47.42 66.8842 47.0767 66.8775 46.63H67.5275C67.5342 46.8767 67.6175 47.0767 67.7775 47.23C67.9442 47.3767 68.1642 47.45 68.4375 47.45C68.7108 47.45 68.9308 47.3767 69.0975 47.23C69.2642 47.0767 69.3508 46.8767 69.3575 46.63H70.0275C70.0208 47.0767 69.8775 47.42 69.5975 47.66C69.3175 47.8933 68.9342 48.01 68.4475 48.01ZM79.4467 48.65C80.1134 48.65 80.6401 48.8433 81.0267 49.23C81.4201 49.6167 81.6167 50.19 81.6167 50.95V54H80.6567V51.06C80.6567 50.5467 80.5367 50.16 80.2967 49.9C80.0634 49.64 79.7267 49.51 79.2867 49.51C78.8001 49.51 78.4134 49.6633 78.1267 49.97C77.8401 50.27 77.6967 50.7033 77.6967 51.27V54H76.7367V51.06C76.7367 50.5467 76.6167 50.16 76.3767 49.9C76.1434 49.64 75.8067 49.51 75.3667 49.51C74.8801 49.51 74.4934 49.6633 74.2067 49.97C73.9201 50.27 73.7767 50.7033 73.7767 51.27V54H72.8167V48.7H73.7367V49.49C73.9301 49.2167 74.1834 49.01 74.4967 48.87C74.8101 48.7233 75.1667 48.65 75.5667 48.65C75.9801 48.65 76.3467 48.7333 76.6667 48.9C76.9867 49.0667 77.2334 49.31 77.4067 49.63C77.6067 49.3233 77.8834 49.0833 78.2367 48.91C78.5967 48.7367 79.0001 48.65 79.4467 48.65ZM85.6945 53.22C86.3279 53.22 86.8379 53.0067 87.2245 52.58L87.7445 53.2C87.5112 53.48 87.2145 53.6933 86.8545 53.84C86.5012 53.9867 86.1045 54.06 85.6645 54.06C85.1045 54.06 84.6079 53.9467 84.1745 53.72C83.7412 53.4867 83.4045 53.1633 83.1645 52.75C82.9312 52.3367 82.8145 51.87 82.8145 51.35C82.8145 50.8367 82.9279 50.3733 83.1545 49.96C83.3879 49.5467 83.7045 49.2267 84.1045 49C84.5112 48.7667 84.9679 48.65 85.4745 48.65C85.9545 48.65 86.3912 48.76 86.7845 48.98C87.1779 49.1933 87.4912 49.4967 87.7245 49.89C87.9579 50.2833 88.0779 50.7367 88.0845 51.25L83.8745 52.07C84.0079 52.4367 84.2312 52.72 84.5445 52.92C84.8645 53.12 85.2479 53.22 85.6945 53.22ZM85.4745 49.46C85.1412 49.46 84.8412 49.5367 84.5745 49.69C84.3145 49.8433 84.1112 50.06 83.9645 50.34C83.8179 50.6133 83.7445 50.9333 83.7445 51.3V51.4L87.1345 50.76C87.0479 50.3733 86.8545 50.06 86.5545 49.82C86.2545 49.58 85.8945 49.46 85.4745 49.46ZM20.56 60.65C21.2267 60.65 21.7533 60.8433 22.14 61.23C22.5333 61.6167 22.73 62.19 22.73 62.95V66H21.77V63.06C21.77 62.5467 21.65 62.16 21.41 61.9C21.1767 61.64 20.84 61.51 20.4 61.51C19.9133 61.51 19.5267 61.6633 19.24 61.97C18.9533 62.27 18.81 62.7033 18.81 63.27V66H17.85V63.06C17.85 62.5467 17.73 62.16 17.49 61.9C17.2567 61.64 16.92 61.51 16.48 61.51C15.9933 61.51 15.6067 61.6633 15.32 61.97C15.0333 62.27 14.89 62.7033 14.89 63.27V66H13.93V60.7H14.85V61.49C15.0433 61.2167 15.2967 61.01 15.61 60.87C15.9233 60.7233 16.28 60.65 16.68 60.65C17.0933 60.65 17.46 60.7333 17.78 60.9C18.1 61.0667 18.3467 61.31 18.52 61.63C18.72 61.3233 18.9967 61.0833 19.35 60.91C19.71 60.7367 20.1133 60.65 20.56 60.65ZM29.3578 60.7V65.28C29.3578 66.2067 29.1411 66.89 28.7078 67.33C28.2745 67.7767 27.6245 68 26.7578 68C26.2845 68 25.8311 67.93 25.3978 67.79C24.9711 67.6567 24.6211 67.4633 24.3478 67.21L24.8178 66.47C25.0511 66.6833 25.3311 66.85 25.6578 66.97C25.9911 67.09 26.3411 67.15 26.7078 67.15C27.2878 67.15 27.7145 67.0033 27.9878 66.71C28.2611 66.4233 28.3978 65.98 28.3978 65.38V64.99C28.2045 65.2433 27.9545 65.44 27.6478 65.58C27.3411 65.7133 27.0078 65.78 26.6478 65.78C25.9411 65.78 25.3845 65.5867 24.9778 65.2C24.5711 64.8133 24.3678 64.24 24.3678 63.48V60.7H25.3278V63.37C25.3278 63.8767 25.4511 64.2633 25.6978 64.53C25.9445 64.79 26.2978 64.92 26.7578 64.92C27.2645 64.92 27.6645 64.7667 27.9578 64.46C28.2511 64.1533 28.3978 63.72 28.3978 63.16V60.7H29.3578ZM33.7254 60.65C34.2587 60.65 34.7287 60.7633 35.1354 60.99C35.5487 61.2167 35.8654 61.5367 36.0854 61.95C36.3121 62.3567 36.4254 62.8267 36.4254 63.36C36.4254 63.8867 36.3154 64.3567 36.0954 64.77C35.8754 65.1767 35.5687 65.4933 35.1754 65.72C34.7821 65.9467 34.3321 66.06 33.8254 66.06C33.4254 66.06 33.0654 65.99 32.7454 65.85C32.4254 65.7033 32.1587 65.4933 31.9454 65.22V67.94H30.9754V63.37C30.9754 62.8367 31.0887 62.3633 31.3154 61.95C31.5487 61.5367 31.8721 61.2167 32.2854 60.99C32.7054 60.7633 33.1854 60.65 33.7254 60.65ZM33.6954 65.22C34.0354 65.22 34.3421 65.1433 34.6154 64.99C34.8887 64.83 35.0987 64.61 35.2454 64.33C35.3987 64.0433 35.4754 63.72 35.4754 63.36C35.4754 63 35.3987 62.68 35.2454 62.4C35.0987 62.1133 34.8887 61.89 34.6154 61.73C34.3487 61.57 34.0421 61.49 33.6954 61.49C33.1687 61.49 32.7421 61.6633 32.4154 62.01C32.0887 62.35 31.9254 62.7967 31.9254 63.35C31.9254 63.7167 31.9987 64.0433 32.1454 64.33C32.2987 64.61 32.5087 64.83 32.7754 64.99C33.0421 65.1433 33.3487 65.22 33.6954 65.22ZM37.8265 60.7H38.7865V62.95H41.8065V60.7H42.7665V66H41.8065V63.78H38.7865V66H37.8265V60.7ZM49.4631 60.7V66H48.5431V65.22C48.3498 65.4867 48.0965 65.6933 47.7831 65.84C47.4698 65.9867 47.1265 66.06 46.7531 66.06C46.0465 66.06 45.4898 65.8667 45.0831 65.48C44.6765 65.0867 44.4731 64.51 44.4731 63.75V60.7H45.4331V63.64C45.4331 64.1533 45.5565 64.5433 45.8031 64.81C46.0498 65.07 46.4031 65.2 46.8631 65.2C47.3698 65.2 47.7698 65.0467 48.0631 64.74C48.3565 64.4333 48.5031 64 48.5031 63.44V60.7H49.4631ZM53.8523 60.65C54.3857 60.65 54.8557 60.7633 55.2623 60.99C55.6757 61.2167 55.9923 61.5367 56.2123 61.95C56.439 62.3567 56.5523 62.8267 56.5523 63.36C56.5523 63.8867 56.4423 64.3567 56.2223 64.77C56.0023 65.1767 55.6957 65.4933 55.3023 65.72C54.909 65.9467 54.459 66.06 53.9523 66.06C53.5523 66.06 53.1923 65.99 52.8723 65.85C52.5523 65.7033 52.2857 65.4933 52.0723 65.22V67.94H51.1023V63.37C51.1023 62.8367 51.2157 62.3633 51.4423 61.95C51.6757 61.5367 51.999 61.2167 52.4123 60.99C52.8323 60.7633 53.3123 60.65 53.8523 60.65ZM53.8223 65.22C54.1623 65.22 54.469 65.1433 54.7423 64.99C55.0157 64.83 55.2257 64.61 55.3723 64.33C55.5257 64.0433 55.6023 63.72 55.6023 63.36C55.6023 63 55.5257 62.68 55.3723 62.4C55.2257 62.1133 55.0157 61.89 54.7423 61.73C54.4757 61.57 54.169 61.49 53.8223 61.49C53.2957 61.49 52.869 61.6633 52.5423 62.01C52.2157 62.35 52.0523 62.7967 52.0523 63.35C52.0523 63.7167 52.1257 64.0433 52.2723 64.33C52.4257 64.61 52.6357 64.83 52.9023 64.99C53.169 65.1433 53.4757 65.22 53.8223 65.22ZM58.0563 64.69C58.2429 64.69 58.3963 64.7567 58.5163 64.89C58.6429 65.0167 58.7063 65.1767 58.7063 65.37C58.7063 65.47 58.6929 65.5667 58.6663 65.66C58.6463 65.7533 58.6029 65.8967 58.5363 66.09L58.0663 67.48H57.4363L57.8063 65.99C57.6796 65.9433 57.5763 65.8667 57.4963 65.76C57.4229 65.6467 57.3863 65.5167 57.3863 65.37C57.3863 65.17 57.4496 65.0067 57.5763 64.88C57.7029 64.7533 57.8629 64.69 58.0563 64.69ZM69.4174 60.65C70.0841 60.65 70.6108 60.8433 70.9974 61.23C71.3908 61.6167 71.5874 62.19 71.5874 62.95V66H70.6274V63.06C70.6274 62.5467 70.5074 62.16 70.2674 61.9C70.0341 61.64 69.6974 61.51 69.2574 61.51C68.7708 61.51 68.3841 61.6633 68.0974 61.97C67.8108 62.27 67.6674 62.7033 67.6674 63.27V66H66.7074V63.06C66.7074 62.5467 66.5874 62.16 66.3474 61.9C66.1141 61.64 65.7774 61.51 65.3374 61.51C64.8508 61.51 64.4641 61.6633 64.1774 61.97C63.8908 62.27 63.7474 62.7033 63.7474 63.27V66H62.7874V60.7H63.7074V61.49C63.9008 61.2167 64.1541 61.01 64.4674 60.87C64.7808 60.7233 65.1374 60.65 65.5374 60.65C65.9508 60.65 66.3174 60.7333 66.6374 60.9C66.9574 61.0667 67.2041 61.31 67.3774 61.63C67.5774 61.3233 67.8541 61.0833 68.2074 60.91C68.5674 60.7367 68.9708 60.65 69.4174 60.65ZM75.8152 60.65C76.3486 60.65 76.8186 60.7633 77.2252 60.99C77.6386 61.2167 77.9552 61.5367 78.1752 61.95C78.4019 62.3567 78.5152 62.8267 78.5152 63.36C78.5152 63.8867 78.4052 64.3567 78.1852 64.77C77.9652 65.1767 77.6586 65.4933 77.2652 65.72C76.8719 65.9467 76.4219 66.06 75.9152 66.06C75.5152 66.06 75.1552 65.99 74.8352 65.85C74.5152 65.7033 74.2486 65.4933 74.0352 65.22V67.94H73.0652V63.37C73.0652 62.8367 73.1786 62.3633 73.4052 61.95C73.6386 61.5367 73.9619 61.2167 74.3752 60.99C74.7952 60.7633 75.2752 60.65 75.8152 60.65ZM75.7852 65.22C76.1252 65.22 76.4319 65.1433 76.7052 64.99C76.9786 64.83 77.1886 64.61 77.3352 64.33C77.4886 64.0433 77.5652 63.72 77.5652 63.36C77.5652 63 77.4886 62.68 77.3352 62.4C77.1886 62.1133 76.9786 61.89 76.7052 61.73C76.4386 61.57 76.1319 61.49 75.7852 61.49C75.2586 61.49 74.8319 61.6633 74.5052 62.01C74.1786 62.35 74.0152 62.7967 74.0152 63.35C74.0152 63.7167 74.0886 64.0433 74.2352 64.33C74.3886 64.61 74.5986 64.83 74.8652 64.99C75.1319 65.1433 75.4386 65.22 75.7852 65.22ZM82.2863 65.22C82.9197 65.22 83.4297 65.0067 83.8163 64.58L84.3363 65.2C84.103 65.48 83.8063 65.6933 83.4463 65.84C83.093 65.9867 82.6963 66.06 82.2563 66.06C81.6963 66.06 81.1997 65.9467 80.7663 65.72C80.333 65.4867 79.9963 65.1633 79.7563 64.75C79.523 64.3367 79.4063 63.87 79.4063 63.35C79.4063 62.8367 79.5197 62.3733 79.7463 61.96C79.9797 61.5467 80.2963 61.2267 80.6963 61C81.103 60.7667 81.5597 60.65 82.0663 60.65C82.5463 60.65 82.983 60.76 83.3763 60.98C83.7697 61.1933 84.083 61.4967 84.3163 61.89C84.5497 62.2833 84.6697 62.7367 84.6763 63.25L80.4663 64.07C80.5997 64.4367 80.823 64.72 81.1363 64.92C81.4563 65.12 81.8397 65.22 82.2863 65.22ZM82.0663 61.46C81.733 61.46 81.433 61.5367 81.1663 61.69C80.9063 61.8433 80.703 62.06 80.5563 62.34C80.4097 62.6133 80.3363 62.9333 80.3363 63.3V63.4L83.7263 62.76C83.6397 62.3733 83.4463 62.06 83.1463 61.82C82.8463 61.58 82.4863 61.46 82.0663 61.46ZM86.0394 60.7H86.9994V62.95H90.0194V60.7H90.9794V66H90.0194V63.78H86.9994V66H86.0394V60.7ZM97.676 60.7V66H96.756V65.22C96.5627 65.4867 96.3093 65.6933 95.996 65.84C95.6827 65.9867 95.3393 66.06 94.966 66.06C94.2593 66.06 93.7027 65.8667 93.296 65.48C92.8893 65.0867 92.686 64.51 92.686 63.75V60.7H93.646V63.64C93.646 64.1533 93.7693 64.5433 94.016 64.81C94.2627 65.07 94.616 65.2 95.076 65.2C95.5827 65.2 95.9827 65.0467 96.276 64.74C96.5693 64.4333 96.716 64 96.716 63.44V60.7H97.676ZM102.065 60.65C102.599 60.65 103.069 60.7633 103.475 60.99C103.889 61.2167 104.205 61.5367 104.425 61.95C104.652 62.3567 104.765 62.8267 104.765 63.36C104.765 63.8867 104.655 64.3567 104.435 64.77C104.215 65.1767 103.909 65.4933 103.515 65.72C103.122 65.9467 102.672 66.06 102.165 66.06C101.765 66.06 101.405 65.99 101.085 65.85C100.765 65.7033 100.499 65.4933 100.285 65.22V67.94H99.3152V63.37C99.3152 62.8367 99.4286 62.3633 99.6552 61.95C99.8886 61.5367 100.212 61.2167 100.625 60.99C101.045 60.7633 101.525 60.65 102.065 60.65ZM102.035 65.22C102.375 65.22 102.682 65.1433 102.955 64.99C103.229 64.83 103.439 64.61 103.585 64.33C103.739 64.0433 103.815 63.72 103.815 63.36C103.815 63 103.739 62.68 103.585 62.4C103.439 62.1133 103.229 61.89 102.955 61.73C102.689 61.57 102.382 61.49 102.035 61.49C101.509 61.49 101.082 61.6633 100.755 62.01C100.429 62.35 100.265 62.7967 100.265 63.35C100.265 63.7167 100.339 64.0433 100.485 64.33C100.639 64.61 100.849 64.83 101.115 64.99C101.382 65.1433 101.689 65.22 102.035 65.22ZM108.436 66.06C107.91 66.06 107.436 65.9433 107.016 65.71C106.596 65.4767 106.266 65.1567 106.026 64.75C105.793 64.3367 105.676 63.87 105.676 63.35C105.676 62.83 105.793 62.3667 106.026 61.96C106.266 61.5467 106.596 61.2267 107.016 61C107.436 60.7667 107.91 60.65 108.436 60.65C108.963 60.65 109.433 60.7667 109.846 61C110.266 61.2267 110.593 61.5467 110.826 61.96C111.066 62.3667 111.186 62.83 111.186 63.35C111.186 63.87 111.066 64.3367 110.826 64.75C110.593 65.1567 110.266 65.4767 109.846 65.71C109.433 65.9433 108.963 66.06 108.436 66.06ZM108.436 65.22C108.776 65.22 109.08 65.1433 109.346 64.99C109.62 64.83 109.833 64.61 109.986 64.33C110.14 64.0433 110.216 63.7167 110.216 63.35C110.216 62.9833 110.14 62.66 109.986 62.38C109.833 62.0933 109.62 61.8733 109.346 61.72C109.08 61.5667 108.776 61.49 108.436 61.49C108.096 61.49 107.79 61.5667 107.516 61.72C107.25 61.8733 107.036 62.0933 106.876 62.38C106.723 62.66 106.646 62.9833 106.646 63.35C106.646 63.7167 106.723 64.0433 106.876 64.33C107.036 64.61 107.25 64.83 107.516 64.99C107.79 65.1433 108.096 65.22 108.436 65.22ZM116.183 63.25C116.869 63.4233 117.213 63.8533 117.213 64.54C117.213 65.0067 117.036 65.3667 116.683 65.62C116.336 65.8733 115.816 66 115.123 66H112.573V60.7H115.033C115.659 60.7 116.149 60.82 116.503 61.06C116.856 61.2933 117.033 61.6267 117.033 62.06C117.033 62.34 116.956 62.5833 116.803 62.79C116.656 62.99 116.449 63.1433 116.183 63.25ZM113.513 62.98H114.953C115.319 62.98 115.596 62.9133 115.783 62.78C115.976 62.6467 116.073 62.4533 116.073 62.2C116.073 61.6933 115.699 61.44 114.953 61.44H113.513V62.98ZM115.053 65.26C115.453 65.26 115.753 65.1967 115.953 65.07C116.153 64.9433 116.253 64.7467 116.253 64.48C116.253 64.2067 116.159 64.0033 115.973 63.87C115.793 63.7367 115.506 63.67 115.113 63.67H113.513V65.26H115.053ZM120.775 63.76H119.675V66H118.715V60.7H119.675V62.94H120.795L122.515 60.7H123.545L121.535 63.25L123.685 66H122.555L120.775 63.76ZM129.514 60.7V65.28C129.514 66.2067 129.297 66.89 128.864 67.33C128.431 67.7767 127.781 68 126.914 68C126.441 68 125.987 67.93 125.554 67.79C125.127 67.6567 124.777 67.4633 124.504 67.21L124.974 66.47C125.207 66.6833 125.487 66.85 125.814 66.97C126.147 67.09 126.497 67.15 126.864 67.15C127.444 67.15 127.871 67.0033 128.144 66.71C128.417 66.4233 128.554 65.98 128.554 65.38V64.99C128.361 65.2433 128.111 65.44 127.804 65.58C127.497 65.7133 127.164 65.78 126.804 65.78C126.097 65.78 125.541 65.5867 125.134 65.2C124.727 64.8133 124.524 64.24 124.524 63.48V60.7H125.484V63.37C125.484 63.8767 125.607 64.2633 125.854 64.53C126.101 64.79 126.454 64.92 126.914 64.92C127.421 64.92 127.821 64.7667 128.114 64.46C128.407 64.1533 128.554 63.72 128.554 63.16V60.7H129.514ZM18.76 72.7V78H17.84V77.22C17.6467 77.4867 17.3933 77.6933 17.08 77.84C16.7667 77.9867 16.4233 78.06 16.05 78.06C15.3433 78.06 14.7867 77.8667 14.38 77.48C13.9733 77.0867 13.77 76.51 13.77 75.75V72.7H14.73V75.64C14.73 76.1533 14.8533 76.5433 15.1 76.81C15.3467 77.07 15.7 77.2 16.16 77.2C16.6667 77.2 17.0667 77.0467 17.36 76.74C17.6533 76.4333 17.8 76 17.8 75.44V72.7H18.76ZM25.1792 72.7V78H24.2192V73.54H21.9392L21.8792 74.72C21.8459 75.4333 21.7826 76.03 21.6892 76.51C21.5959 76.9833 21.4426 77.3633 21.2292 77.65C21.0159 77.9367 20.7192 78.08 20.3392 78.08C20.1659 78.08 19.9692 78.05 19.7492 77.99L19.8092 77.18C19.8959 77.2 19.9759 77.21 20.0492 77.21C20.3159 77.21 20.5159 77.0933 20.6492 76.86C20.7826 76.6267 20.8692 76.35 20.9092 76.03C20.9492 75.71 20.9859 75.2533 21.0192 74.66L21.1092 72.7H25.1792ZM31.8655 72.7V78H30.9455V77.22C30.7521 77.4867 30.4988 77.6933 30.1855 77.84C29.8721 77.9867 29.5288 78.06 29.1555 78.06C28.4488 78.06 27.8921 77.8667 27.4855 77.48C27.0788 77.0867 26.8755 76.51 26.8755 75.75V72.7H27.8355V75.64C27.8355 76.1533 27.9588 76.5433 28.2055 76.81C28.4521 77.07 28.8055 77.2 29.2655 77.2C29.7721 77.2 30.1721 77.0467 30.4655 76.74C30.7588 76.4333 30.9055 76 30.9055 75.44V72.7H31.8655ZM41.2502 72.7V78H40.3302V77.22C40.1369 77.4867 39.8836 77.6933 39.5702 77.84C39.2569 77.9867 38.9136 78.06 38.5402 78.06C37.8336 78.06 37.2769 77.8667 36.8702 77.48C36.4636 77.0867 36.2602 76.51 36.2602 75.75V72.7H37.2202V75.64C37.2202 76.1533 37.3436 76.5433 37.5902 76.81C37.8369 77.07 38.1902 77.2 38.6502 77.2C39.1569 77.2 39.5569 77.0467 39.8502 76.74C40.1436 76.4333 40.2902 76 40.2902 75.44V72.7H41.2502ZM47.0195 73.54H44.0795V78H43.1195V72.7H47.0195V73.54ZM50.5223 72.65C51.0556 72.65 51.5256 72.7633 51.9323 72.99C52.3456 73.2167 52.6623 73.5367 52.8823 73.95C53.1089 74.3567 53.2223 74.8267 53.2223 75.36C53.2223 75.8867 53.1123 76.3567 52.8923 76.77C52.6723 77.1767 52.3656 77.4933 51.9723 77.72C51.5789 77.9467 51.1289 78.06 50.6223 78.06C50.2223 78.06 49.8623 77.99 49.5423 77.85C49.2223 77.7033 48.9556 77.4933 48.7423 77.22V79.94H47.7723V75.37C47.7723 74.8367 47.8856 74.3633 48.1123 73.95C48.3456 73.5367 48.6689 73.2167 49.0823 72.99C49.5023 72.7633 49.9823 72.65 50.5223 72.65ZM50.4923 77.22C50.8323 77.22 51.1389 77.1433 51.4123 76.99C51.6856 76.83 51.8956 76.61 52.0423 76.33C52.1956 76.0433 52.2723 75.72 52.2723 75.36C52.2723 75 52.1956 74.68 52.0423 74.4C51.8956 74.1133 51.6856 73.89 51.4123 73.73C51.1456 73.57 50.8389 73.49 50.4923 73.49C49.9656 73.49 49.5389 73.6633 49.2123 74.01C48.8856 74.35 48.7223 74.7967 48.7223 75.35C48.7223 75.7167 48.7956 76.0433 48.9423 76.33C49.0956 76.61 49.3056 76.83 49.5723 76.99C49.8389 77.1433 50.1456 77.22 50.4923 77.22ZM59.5434 72.7V77.28C59.5434 78.2067 59.3267 78.89 58.8934 79.33C58.46 79.7767 57.81 80 56.9434 80C56.47 80 56.0167 79.93 55.5834 79.79C55.1567 79.6567 54.8067 79.4633 54.5334 79.21L55.0034 78.47C55.2367 78.6833 55.5167 78.85 55.8434 78.97C56.1767 79.09 56.5267 79.15 56.8934 79.15C57.4734 79.15 57.9 79.0033 58.1734 78.71C58.4467 78.4233 58.5834 77.98 58.5834 77.38V76.99C58.39 77.2433 58.14 77.44 57.8334 77.58C57.5267 77.7133 57.1934 77.78 56.8334 77.78C56.1267 77.78 55.57 77.5867 55.1634 77.2C54.7567 76.8133 54.5534 76.24 54.5534 75.48V72.7H55.5134V75.37C55.5134 75.8767 55.6367 76.2633 55.8834 76.53C56.13 76.79 56.4834 76.92 56.9434 76.92C57.45 76.92 57.85 76.7667 58.1434 76.46C58.4367 76.1533 58.5834 75.72 58.5834 75.16V72.7H59.5434ZM61.6109 76.69C61.7976 76.69 61.9509 76.7567 62.0709 76.89C62.1976 77.0167 62.2609 77.1767 62.2609 77.37C62.2609 77.47 62.2476 77.5667 62.2209 77.66C62.2009 77.7533 62.1576 77.8967 62.0909 78.09L61.6209 79.48H60.9909L61.3609 77.99C61.2343 77.9433 61.1309 77.8667 61.0509 77.76C60.9776 77.6467 60.9409 77.5167 60.9409 77.37C60.9409 77.17 61.0043 77.0067 61.1309 76.88C61.2576 76.7533 61.4176 76.69 61.6109 76.69ZM71.2621 72.7V77.28C71.2621 78.2067 71.0454 78.89 70.6121 79.33C70.1788 79.7767 69.5288 80 68.6621 80C68.1888 80 67.7354 79.93 67.3021 79.79C66.8754 79.6567 66.5254 79.4633 66.2521 79.21L66.7221 78.47C66.9554 78.6833 67.2354 78.85 67.5621 78.97C67.8954 79.09 68.2454 79.15 68.6121 79.15C69.1921 79.15 69.6188 79.0033 69.8921 78.71C70.1654 78.4233 70.3021 77.98 70.3021 77.38V76.99C70.1088 77.2433 69.8588 77.44 69.5521 77.58C69.2454 77.7133 68.9121 77.78 68.5521 77.78C67.8454 77.78 67.2888 77.5867 66.8821 77.2C66.4754 76.8133 66.2721 76.24 66.2721 75.48V72.7H67.2321V75.37C67.2321 75.8767 67.3554 76.2633 67.6021 76.53C67.8488 76.79 68.2021 76.92 68.6621 76.92C69.1688 76.92 69.5688 76.7667 69.8621 76.46C70.1554 76.1533 70.3021 75.72 70.3021 75.16V72.7H71.2621ZM77.3397 72.7V78H76.3797V75.86C75.8064 76.1267 75.2364 76.26 74.6697 76.26C74.0097 76.26 73.4997 76.1067 73.1397 75.8C72.7797 75.4933 72.5997 75.0333 72.5997 74.42V72.7H73.5597V74.36C73.5597 74.7267 73.673 75.0033 73.8997 75.19C74.133 75.3767 74.4564 75.47 74.8697 75.47C75.3364 75.47 75.8397 75.3533 76.3797 75.12V72.7H77.3397ZM84.1834 72.7V78H83.2634V77.16C83.0501 77.4533 82.7801 77.6767 82.4534 77.83C82.1268 77.9833 81.7668 78.06 81.3734 78.06C80.8601 78.06 80.4001 77.9467 79.9934 77.72C79.5868 77.4933 79.2668 77.1767 79.0334 76.77C78.8068 76.3567 78.6934 75.8833 78.6934 75.35C78.6934 74.8167 78.8068 74.3467 79.0334 73.94C79.2668 73.5333 79.5868 73.2167 79.9934 72.99C80.4001 72.7633 80.8601 72.65 81.3734 72.65C81.7534 72.65 82.1034 72.7233 82.4234 72.87C82.7434 73.01 83.0101 73.22 83.2234 73.5V72.7H84.1834ZM81.4534 77.22C81.7868 77.22 82.0901 77.1433 82.3634 76.99C82.6368 76.83 82.8501 76.61 83.0034 76.33C83.1568 76.0433 83.2334 75.7167 83.2334 75.35C83.2334 74.9833 83.1568 74.66 83.0034 74.38C82.8501 74.0933 82.6368 73.8733 82.3634 73.72C82.0901 73.5667 81.7868 73.49 81.4534 73.49C81.1134 73.49 80.8068 73.5667 80.5334 73.72C80.2668 73.8733 80.0534 74.0933 79.8934 74.38C79.7401 74.66 79.6634 74.9833 79.6634 75.35C79.6634 75.7167 79.7401 76.0433 79.8934 76.33C80.0534 76.61 80.2668 76.83 80.5334 76.99C80.8068 77.1433 81.1134 77.22 81.4534 77.22ZM88.3298 78.06C87.7898 78.06 87.3065 77.9433 86.8798 77.71C86.4598 77.4767 86.1298 77.1567 85.8898 76.75C85.6498 76.3367 85.5298 75.87 85.5298 75.35C85.5298 74.83 85.6498 74.3667 85.8898 73.96C86.1298 73.5467 86.4598 73.2267 86.8798 73C87.3065 72.7667 87.7898 72.65 88.3298 72.65C88.8098 72.65 89.2365 72.7467 89.6098 72.94C89.9898 73.1333 90.2832 73.4133 90.4898 73.78L89.7598 74.25C89.5932 73.9967 89.3865 73.8067 89.1398 73.68C88.8932 73.5533 88.6198 73.49 88.3198 73.49C87.9732 73.49 87.6598 73.5667 87.3798 73.72C87.1065 73.8733 86.8898 74.0933 86.7298 74.38C86.5765 74.66 86.4998 74.9833 86.4998 75.35C86.4998 75.7233 86.5765 76.0533 86.7298 76.34C86.8898 76.62 87.1065 76.8367 87.3798 76.99C87.6598 77.1433 87.9732 77.22 88.3198 77.22C88.6198 77.22 88.8932 77.1567 89.1398 77.03C89.3865 76.9033 89.5932 76.7133 89.7598 76.46L90.4898 76.92C90.2832 77.2867 89.9898 77.57 89.6098 77.77C89.2365 77.9633 88.8098 78.06 88.3298 78.06ZM98.3627 72.65C99.0294 72.65 99.5561 72.8433 99.9427 73.23C100.336 73.6167 100.533 74.19 100.533 74.95V78H99.5727V75.06C99.5727 74.5467 99.4527 74.16 99.2127 73.9C98.9794 73.64 98.6427 73.51 98.2027 73.51C97.7161 73.51 97.3294 73.6633 97.0427 73.97C96.7561 74.27 96.6127 74.7033 96.6127 75.27V78H95.6527V75.06C95.6527 74.5467 95.5327 74.16 95.2927 73.9C95.0594 73.64 94.7227 73.51 94.2827 73.51C93.7961 73.51 93.4094 73.6633 93.1227 73.97C92.8361 74.27 92.6927 74.7033 92.6927 75.27V78H91.7327V72.7H92.6527V73.49C92.8461 73.2167 93.0994 73.01 93.4127 72.87C93.7261 72.7233 94.0827 72.65 94.4827 72.65C94.8961 72.65 95.2627 72.7333 95.5827 72.9C95.9027 73.0667 96.1494 73.31 96.3227 73.63C96.5227 73.3233 96.7994 73.0833 97.1527 72.91C97.5127 72.7367 97.9161 72.65 98.3627 72.65ZM102.241 72.7H103.201V74.95H106.221V72.7H107.181V78H106.221V75.78H103.201V78H102.241V72.7ZM113.877 72.7V78H112.957V77.22C112.764 77.4867 112.511 77.6933 112.197 77.84C111.884 77.9867 111.541 78.06 111.167 78.06C110.461 78.06 109.904 77.8667 109.497 77.48C109.091 77.0867 108.887 76.51 108.887 75.75V72.7H109.847V75.64C109.847 76.1533 109.971 76.5433 110.217 76.81C110.464 77.07 110.817 77.2 111.277 77.2C111.784 77.2 112.184 77.0467 112.477 76.74C112.771 76.4333 112.917 76 112.917 75.44V72.7H113.877ZM117.806 75.76H116.706V78H115.746V72.7H116.706V74.94H117.826L119.546 72.7H120.576L118.566 75.25L120.716 78H119.586L117.806 75.76ZM126.455 72.7V78H125.535V77.22C125.342 77.4867 125.089 77.6933 124.775 77.84C124.462 77.9867 124.119 78.06 123.745 78.06C123.039 78.06 122.482 77.8667 122.075 77.48C121.669 77.0867 121.465 76.51 121.465 75.75V72.7H122.425V75.64C122.425 76.1533 122.549 76.5433 122.795 76.81C123.042 77.07 123.395 77.2 123.855 77.2C124.362 77.2 124.762 77.0467 125.055 76.74C125.349 76.4333 125.495 76 125.495 75.44V72.7H126.455ZM13.93 84.7H14.89V86.95H17.91V84.7H18.87V90H17.91V87.78H14.89V90H13.93V84.7ZM25.7166 84.7V90H24.7966V89.16C24.5833 89.4533 24.3133 89.6767 23.9866 89.83C23.66 89.9833 23.3 90.06 22.9066 90.06C22.3933 90.06 21.9333 89.9467 21.5266 89.72C21.12 89.4933 20.8 89.1767 20.5666 88.77C20.34 88.3567 20.2266 87.8833 20.2266 87.35C20.2266 86.8167 20.34 86.3467 20.5666 85.94C20.8 85.5333 21.12 85.2167 21.5266 84.99C21.9333 84.7633 22.3933 84.65 22.9066 84.65C23.2866 84.65 23.6366 84.7233 23.9566 84.87C24.2766 85.01 24.5433 85.22 24.7566 85.5V84.7H25.7166ZM22.9866 89.22C23.32 89.22 23.6233 89.1433 23.8966 88.99C24.17 88.83 24.3833 88.61 24.5366 88.33C24.69 88.0433 24.7666 87.7167 24.7666 87.35C24.7666 86.9833 24.69 86.66 24.5366 86.38C24.3833 86.0933 24.17 85.8733 23.8966 85.72C23.6233 85.5667 23.32 85.49 22.9866 85.49C22.6466 85.49 22.34 85.5667 22.0666 85.72C21.8 85.8733 21.5866 86.0933 21.4266 86.38C21.2733 86.66 21.1966 86.9833 21.1966 87.35C21.1966 87.7167 21.2733 88.0433 21.4266 88.33C21.5866 88.61 21.8 88.83 22.0666 88.99C22.34 89.1433 22.6466 89.22 22.9866 89.22ZM32.383 84.7V90H31.463V89.22C31.2697 89.4867 31.0164 89.6933 30.703 89.84C30.3897 89.9867 30.0464 90.06 29.673 90.06C28.9664 90.06 28.4097 89.8667 28.003 89.48C27.5964 89.0867 27.393 88.51 27.393 87.75V84.7H28.353V87.64C28.353 88.1533 28.4764 88.5433 28.723 88.81C28.9697 89.07 29.323 89.2 29.783 89.2C30.2897 89.2 30.6897 89.0467 30.983 88.74C31.2764 88.4333 31.423 88 31.423 87.44V84.7H32.383ZM29.883 84.01C29.3897 84.01 29.0064 83.8933 28.733 83.66C28.4597 83.42 28.3197 83.0767 28.313 82.63H28.963C28.9697 82.8767 29.053 83.0767 29.213 83.23C29.3797 83.3767 29.5997 83.45 29.873 83.45C30.1464 83.45 30.3664 83.3767 30.533 83.23C30.6997 83.0767 30.7864 82.8767 30.793 82.63H31.463C31.4564 83.0767 31.313 83.42 31.033 83.66C30.753 83.8933 30.3697 84.01 29.883 84.01ZM39.2923 84.7V89.28C39.2923 90.2067 39.0623 90.89 38.6023 91.33C38.1423 91.7767 37.4556 92 36.5423 92C36.0423 92 35.5656 91.93 35.1123 91.79C34.6589 91.6567 34.2923 91.4633 34.0123 91.21L34.4723 90.47C34.7189 90.6833 35.0223 90.85 35.3823 90.97C35.7489 91.0967 36.1256 91.16 36.5123 91.16C37.1323 91.16 37.5889 91.0133 37.8823 90.72C38.1823 90.4267 38.3323 89.98 38.3323 89.38V88.96C38.1056 89.2333 37.8256 89.44 37.4923 89.58C37.1656 89.7133 36.8089 89.78 36.4223 89.78C35.9156 89.78 35.4556 89.6733 35.0423 89.46C34.6356 89.24 34.3156 88.9367 34.0823 88.55C33.8489 88.1567 33.7323 87.71 33.7323 87.21C33.7323 86.71 33.8489 86.2667 34.0823 85.88C34.3156 85.4867 34.6356 85.1833 35.0423 84.97C35.4556 84.7567 35.9156 84.65 36.4223 84.65C36.8223 84.65 37.1923 84.7233 37.5323 84.87C37.8789 85.0167 38.1623 85.2333 38.3823 85.52V84.7H39.2923ZM36.5323 88.94C36.8789 88.94 37.1889 88.8667 37.4623 88.72C37.7423 88.5733 37.9589 88.37 38.1123 88.11C38.2723 87.8433 38.3523 87.5433 38.3523 87.21C38.3523 86.6967 38.1823 86.2833 37.8423 85.97C37.5023 85.65 37.0656 85.49 36.5323 85.49C35.9923 85.49 35.5523 85.65 35.2123 85.97C34.8723 86.2833 34.7023 86.6967 34.7023 87.21C34.7023 87.5433 34.7789 87.8433 34.9323 88.11C35.0923 88.37 35.3089 88.5733 35.5823 88.72C35.8623 88.8667 36.1789 88.94 36.5323 88.94ZM46.0863 84.7V89.28C46.0863 90.2067 45.8697 90.89 45.4363 91.33C45.003 91.7767 44.353 92 43.4863 92C43.013 92 42.5597 91.93 42.1263 91.79C41.6997 91.6567 41.3497 91.4633 41.0763 91.21L41.5463 90.47C41.7797 90.6833 42.0597 90.85 42.3863 90.97C42.7197 91.09 43.0697 91.15 43.4363 91.15C44.0163 91.15 44.443 91.0033 44.7163 90.71C44.9897 90.4233 45.1263 89.98 45.1263 89.38V88.99C44.933 89.2433 44.683 89.44 44.3763 89.58C44.0697 89.7133 43.7363 89.78 43.3763 89.78C42.6697 89.78 42.113 89.5867 41.7063 89.2C41.2997 88.8133 41.0963 88.24 41.0963 87.48V84.7H42.0563V87.37C42.0563 87.8767 42.1797 88.2633 42.4263 88.53C42.673 88.79 43.0263 88.92 43.4863 88.92C43.993 88.92 44.393 88.7667 44.6863 88.46C44.9797 88.1533 45.1263 87.72 45.1263 87.16V84.7H46.0863ZM54.5639 84.65C55.2306 84.65 55.7572 84.8433 56.1439 85.23C56.5372 85.6167 56.7339 86.19 56.7339 86.95V90H55.7739V87.06C55.7739 86.5467 55.6539 86.16 55.4139 85.9C55.1806 85.64 54.8439 85.51 54.4039 85.51C53.9172 85.51 53.5306 85.6633 53.2439 85.97C52.9572 86.27 52.8139 86.7033 52.8139 87.27V90H51.8539V87.06C51.8539 86.5467 51.7339 86.16 51.4939 85.9C51.2606 85.64 50.9239 85.51 50.4839 85.51C49.9972 85.51 49.6106 85.6633 49.3239 85.97C49.0372 86.27 48.8939 86.7033 48.8939 87.27V90H47.9339V84.7H48.8539V85.49C49.0472 85.2167 49.3006 85.01 49.6139 84.87C49.9272 84.7233 50.2839 84.65 50.6839 84.65C51.0972 84.65 51.4639 84.7333 51.7839 84.9C52.1039 85.0667 52.3506 85.31 52.5239 85.63C52.7239 85.3233 53.0006 85.0833 53.3539 84.91C53.7139 84.7367 54.1172 84.65 54.5639 84.65ZM64.7373 87.25C65.4239 87.4233 65.7673 87.8533 65.7673 88.54C65.7673 89.0067 65.5906 89.3667 65.2373 89.62C64.8906 89.8733 64.3706 90 63.6773 90H61.1273V84.7H63.5873C64.2139 84.7 64.7039 84.82 65.0573 85.06C65.4106 85.2933 65.5873 85.6267 65.5873 86.06C65.5873 86.34 65.5106 86.5833 65.3573 86.79C65.2106 86.99 65.0039 87.1433 64.7373 87.25ZM62.0673 86.98H63.5073C63.8739 86.98 64.1506 86.9133 64.3373 86.78C64.5306 86.6467 64.6273 86.4533 64.6273 86.2C64.6273 85.6933 64.2539 85.44 63.5073 85.44H62.0673V86.98ZM63.6073 89.26C64.0073 89.26 64.3073 89.1967 64.5073 89.07C64.7073 88.9433 64.8073 88.7467 64.8073 88.48C64.8073 88.2067 64.7139 88.0033 64.5273 87.87C64.3473 87.7367 64.0606 87.67 63.6673 87.67H62.0673V89.26H63.6073ZM72.2498 84.7V90H71.3298V89.16C71.1165 89.4533 70.8465 89.6767 70.5198 89.83C70.1932 89.9833 69.8332 90.06 69.4398 90.06C68.9265 90.06 68.4665 89.9467 68.0598 89.72C67.6532 89.4933 67.3332 89.1767 67.0998 88.77C66.8732 88.3567 66.7598 87.8833 66.7598 87.35C66.7598 86.8167 66.8732 86.3467 67.0998 85.94C67.3332 85.5333 67.6532 85.2167 68.0598 84.99C68.4665 84.7633 68.9265 84.65 69.4398 84.65C69.8198 84.65 70.1698 84.7233 70.4898 84.87C70.8098 85.01 71.0765 85.22 71.2898 85.5V84.7H72.2498ZM69.5198 89.22C69.8532 89.22 70.1565 89.1433 70.4298 88.99C70.7032 88.83 70.9165 88.61 71.0698 88.33C71.2232 88.0433 71.2998 87.7167 71.2998 87.35C71.2998 86.9833 71.2232 86.66 71.0698 86.38C70.9165 86.0933 70.7032 85.8733 70.4298 85.72C70.1565 85.5667 69.8532 85.49 69.5198 85.49C69.1798 85.49 68.8732 85.5667 68.5998 85.72C68.3332 85.8733 68.1198 86.0933 67.9598 86.38C67.8065 86.66 67.7298 86.9833 67.7298 87.35C67.7298 87.7167 67.8065 88.0433 67.9598 88.33C68.1198 88.61 68.3332 88.83 68.5998 88.99C68.8732 89.1433 69.1798 89.22 69.5198 89.22ZM76.3963 90.06C75.8563 90.06 75.3729 89.9433 74.9463 89.71C74.5263 89.4767 74.1963 89.1567 73.9563 88.75C73.7163 88.3367 73.5963 87.87 73.5963 87.35C73.5963 86.83 73.7163 86.3667 73.9563 85.96C74.1963 85.5467 74.5263 85.2267 74.9463 85C75.3729 84.7667 75.8563 84.65 76.3963 84.65C76.8763 84.65 77.3029 84.7467 77.6763 84.94C78.0563 85.1333 78.3496 85.4133 78.5563 85.78L77.8263 86.25C77.6596 85.9967 77.4529 85.8067 77.2063 85.68C76.9596 85.5533 76.6863 85.49 76.3863 85.49C76.0396 85.49 75.7263 85.5667 75.4463 85.72C75.1729 85.8733 74.9563 86.0933 74.7963 86.38C74.6429 86.66 74.5663 86.9833 74.5663 87.35C74.5663 87.7233 74.6429 88.0533 74.7963 88.34C74.9563 88.62 75.1729 88.8367 75.4463 88.99C75.7263 89.1433 76.0396 89.22 76.3863 89.22C76.6863 89.22 76.9596 89.1567 77.2063 89.03C77.4529 88.9033 77.6596 88.7133 77.8263 88.46L78.5563 88.92C78.3496 89.2867 78.0563 89.57 77.6763 89.77C77.3029 89.9633 76.8763 90.06 76.3963 90.06ZM84.7947 90.06C84.2547 90.06 83.7714 89.9433 83.3447 89.71C82.9247 89.4767 82.5947 89.1567 82.3547 88.75C82.1147 88.3367 81.9947 87.87 81.9947 87.35C81.9947 86.83 82.1147 86.3667 82.3547 85.96C82.5947 85.5467 82.9247 85.2267 83.3447 85C83.7714 84.7667 84.2547 84.65 84.7947 84.65C85.2747 84.65 85.7014 84.7467 86.0747 84.94C86.4547 85.1333 86.748 85.4133 86.9547 85.78L86.2247 86.25C86.058 85.9967 85.8514 85.8067 85.6047 85.68C85.358 85.5533 85.0847 85.49 84.7847 85.49C84.438 85.49 84.1247 85.5667 83.8447 85.72C83.5714 85.8733 83.3547 86.0933 83.1947 86.38C83.0414 86.66 82.9647 86.9833 82.9647 87.35C82.9647 87.7233 83.0414 88.0533 83.1947 88.34C83.3547 88.62 83.5714 88.8367 83.8447 88.99C84.1247 89.1433 84.438 89.22 84.7847 89.22C85.0847 89.22 85.358 89.1567 85.6047 89.03C85.8514 88.9033 86.058 88.7133 86.2247 88.46L86.9547 88.92C86.748 89.2867 86.4547 89.57 86.0747 89.77C85.7014 89.9633 85.2747 90.06 84.7947 90.06ZM93.0995 84.7V90H92.1795V89.16C91.9661 89.4533 91.6961 89.6767 91.3695 89.83C91.0428 89.9833 90.6828 90.06 90.2895 90.06C89.7761 90.06 89.3161 89.9467 88.9095 89.72C88.5028 89.4933 88.1828 89.1767 87.9495 88.77C87.7228 88.3567 87.6095 87.8833 87.6095 87.35C87.6095 86.8167 87.7228 86.3467 87.9495 85.94C88.1828 85.5333 88.5028 85.2167 88.9095 84.99C89.3161 84.7633 89.7761 84.65 90.2895 84.65C90.6695 84.65 91.0195 84.7233 91.3395 84.87C91.6595 85.01 91.9261 85.22 92.1395 85.5V84.7H93.0995ZM90.3695 89.22C90.7028 89.22 91.0061 89.1433 91.2795 88.99C91.5528 88.83 91.7661 88.61 91.9195 88.33C92.0728 88.0433 92.1495 87.7167 92.1495 87.35C92.1495 86.9833 92.0728 86.66 91.9195 86.38C91.7661 86.0933 91.5528 85.8733 91.2795 85.72C91.0061 85.5667 90.7028 85.49 90.3695 85.49C90.0295 85.49 89.7228 85.5667 89.4495 85.72C89.1828 85.8733 88.9695 86.0933 88.8095 86.38C88.6561 86.66 88.5795 86.9833 88.5795 87.35C88.5795 87.7167 88.6561 88.0433 88.8095 88.33C88.9695 88.61 89.1828 88.83 89.4495 88.99C89.7228 89.1433 90.0295 89.22 90.3695 89.22ZM101.046 84.7V90H100.176V86.13L98.1959 89.4H97.7759L95.8159 86.12V90H94.9359V84.7H95.9259L98.0059 88.28L100.146 84.7H101.046ZM107.744 84.7V90H106.824V89.22C106.631 89.4867 106.378 89.6933 106.064 89.84C105.751 89.9867 105.408 90.06 105.034 90.06C104.328 90.06 103.771 89.8667 103.364 89.48C102.958 89.0867 102.754 88.51 102.754 87.75V84.7H103.714V87.64C103.714 88.1533 103.838 88.5433 104.084 88.81C104.331 89.07 104.684 89.2 105.144 89.2C105.651 89.2 106.051 89.0467 106.344 88.74C106.638 88.4333 106.784 88 106.784 87.44V84.7H107.744Z" fill="#2F70FF"/>
<circle cx="188" cy="66" r="25" fill="#EF15B5"/>
<mask id="mask0_69_504" style="mask-type:alpha" maskUnits="userSpaceOnUse" x="163" y="41" width="50" height="50">
<circle cx="188" cy="66" r="25" fill="#EF15B5"/>
</mask>
<g mask="url(#mask0_69_504)">
<path fill-rule="evenodd" clip-rule="evenodd" d="M193.113 13.9699C193.151 14.2083 193.16 14.4628 193.157 14.7102C193.107 18.2901 191.796 21.7574 190.581 24.7282C187.457 32.3588 183.472 39.7429 179.5 46.989C179.372 48.2614 179.263 49.5341 179.166 50.8023C178.666 57.341 178.504 64.0228 178.81 70.5761C178.821 70.5623 178.832 70.5484 178.842 70.5346C180.756 68.062 182.613 65.6618 184.308 63.0461C186.747 59.2799 189.061 55.4724 190.676 51.4226C190.672 51.4325 190.674 51.4274 190.686 51.3936C190.694 51.3734 190.704 51.343 190.72 51.2994C190.753 51.2061 190.799 51.078 190.851 50.9319C190.956 50.6408 191.092 50.2678 191.223 49.9261C191.342 49.6169 191.495 49.2356 191.627 48.9888C191.658 48.9323 191.73 48.8 191.839 48.6669C191.884 48.6123 192.02 48.4486 192.246 48.3122C192.479 48.1718 193.123 47.8973 193.809 48.3106C194.343 48.632 194.473 49.143 194.498 49.2425C194.542 49.4127 194.547 49.5559 194.548 49.622C194.551 49.7663 194.535 49.8992 194.524 49.983C194.382 51.0495 193.961 52.0389 193.596 52.8471C193.528 52.9976 193.463 53.1417 193.399 53.2803C193.093 53.9508 192.843 54.4967 192.686 55.0473C191.265 60.0346 191.371 65.8474 191.569 71.2906C191.682 74.396 191.901 77.6661 192.689 80.5046C192.715 80.5996 192.767 80.7998 192.823 81.0147C192.859 81.1569 192.898 81.3056 192.932 81.4344C192.97 81.5809 193.004 81.7063 193.029 81.7961C193.111 81.9816 193.157 82.1868 193.157 82.4028C193.157 82.4375 193.156 82.4998 193.147 82.5765C193.141 82.6299 193.12 82.806 193.03 83.0114C192.962 83.1675 192.636 83.8177 191.811 83.9042C191.104 83.9783 190.669 83.5484 190.6 83.4802L190.599 83.4789C190.471 83.3525 190.396 83.232 190.37 83.1889C190.335 83.1317 190.311 83.0832 190.297 83.0544C190.269 82.9969 190.25 82.9482 190.241 82.9238C190.207 82.8359 190.179 82.7395 190.163 82.6869C190.125 82.5545 190.076 82.3731 190.03 82.1959C189.984 82.0229 189.941 81.8534 189.903 81.707C189.857 81.527 189.819 81.3818 189.799 81.3075C188.907 78.0977 188.684 74.5149 188.571 71.3997C188.462 68.4199 188.37 65.1667 188.575 61.9212C187.998 62.8536 187.412 63.7717 186.826 64.6771C185.057 67.4075 183.088 69.9517 181.152 72.4534C180.486 73.3137 179.824 74.1689 179.175 75.025C179.035 75.2105 178.739 75.574 178.266 75.7636C177.986 75.876 177.609 75.9395 177.2 75.8243C176.801 75.7119 176.53 75.4744 176.366 75.2746C176.081 74.9272 175.987 74.5344 175.95 74.3619C175.903 74.1389 175.88 73.9104 175.868 73.7148C175.843 73.3212 175.852 72.8885 175.861 72.5591C175.863 72.4748 175.865 72.4028 175.867 72.3368C175.87 72.2586 175.872 72.1889 175.874 72.1173C175.875 72.0572 175.876 72.0102 175.876 71.9739C175.876 71.9423 175.876 71.9292 175.876 71.9292C175.876 71.9292 175.876 71.93 175.876 71.9316C175.535 65.801 175.605 59.5624 175.978 53.4297C175.385 54.524 174.799 55.6159 174.222 56.7057C173.086 58.8507 171.946 60.9929 170.807 63.1343C165.249 73.5813 159.701 84.0104 154.666 94.6687C154.612 94.7829 154.558 94.8965 154.505 95.0096C153.468 97.2002 152.513 99.2162 152.513 101.215C152.513 102.043 151.842 102.715 151.013 102.715C150.185 102.715 149.513 102.043 149.513 101.215C149.513 98.5083 150.756 95.9012 151.725 93.8687C151.803 93.7045 151.88 93.544 151.954 93.3875C157.021 82.6583 162.61 72.1543 168.169 61.7061C169.305 59.5696 170.441 57.4353 171.571 55.3019C173.068 52.4741 174.608 49.6676 176.146 46.8646C176.29 46.6016 176.434 46.3387 176.578 46.0757C177.316 39.0942 178.668 31.9054 181.762 25.4473C183.706 21.3902 186.491 17.704 189.148 14.3183C189.24 14.1999 189.331 14.0717 189.443 13.914C189.486 13.8535 189.531 13.7887 189.582 13.7184C189.723 13.5202 189.952 13.2025 190.201 12.9656C190.308 12.8634 190.577 12.6184 190.975 12.4974C191.203 12.4283 191.518 12.3864 191.87 12.4798C192.23 12.5755 192.501 12.7796 192.685 12.9945C193.001 13.3626 193.083 13.7833 193.113 13.9699ZM180.746 38.3792C183.315 33.5224 185.745 28.6235 187.804 23.5918C188.467 21.9723 189.091 20.3521 189.529 18.738C187.597 21.3109 185.806 23.9509 184.468 26.7435C182.719 30.394 181.553 34.3275 180.746 38.3792ZM176.762 73.2396C176.762 73.2388 176.769 73.2305 176.782 73.217C176.769 73.2337 176.762 73.2405 176.762 73.2396ZM178.883 73.728C178.89 73.753 178.889 73.7583 178.884 73.7361C178.884 73.734 178.883 73.7313 178.883 73.728Z" fill="#CCFE00"/>
<path d="M198 52.6667C198 58.7216 198.178 64.7615 198.232 70.8061C198.249 72.6562 198.232 74.508 198.232 76.3582C198.232 76.845 198.475 78.8467 198.181 79.2895C198.023 79.5269 198.03 78.7316 198.181 78.5308C198.716 77.8151 199.523 77.2301 200.168 76.7721C203.972 74.0703 208.125 71.9916 212.301 70.5992C218.729 68.4556 226.334 67.428 232.9 69.2887C233.869 69.5631 235.736 69.7824 236.333 70.9785" stroke="#CCFE00" stroke-width="3" stroke-linecap="round"/>
</g>
</svg>
