<?xml version="1.0" standalone="no"?>
<!DOCTYPE svg PUBLIC "-//W3C//DTD SVG 20010904//EN"
 "http://www.w3.org/TR/2001/REC-SVG-20010904/DTD/svg10.dtd">
<svg version="1.0" xmlns="http://www.w3.org/2000/svg"
 width="846.000000pt" height="654.000000pt" viewBox="0 0 846.000000 654.000000"
 preserveAspectRatio="xMidYMid meet">

<g transform="translate(0.000000,654.000000) scale(0.100000,-0.100000)"
fill="#000000" stroke="none">
<path d="M3230 5669 c-573 -209 -913 -338 -928 -352 -13 -12 -29 -31 -35 -42
-9 -14 -14 -187 -17 -595 -5 -504 -8 -582 -23 -635 -10 -33 -62 -150 -117
-260 -151 -304 -175 -395 -174 -660 1 -149 4 -182 26 -266 92 -343 306 -566
633 -660 l80 -23 1950 -4 c1452 -2 1964 0 2005 8 97 21 179 67 256 144 123
122 171 251 161 431 -14 251 -118 477 -299 651 -127 123 -285 210 -451 249
-34 8 -217 33 -406 55 -312 37 -481 63 -504 77 -5 3 -120 -105 -255 -240 -214
-212 -252 -246 -285 -252 -114 -22 -210 80 -177 188 10 34 47 77 206 237 l193
195 -70 43 c-38 24 -108 75 -155 114 l-86 71 -261 -261 c-291 -290 -294 -291
-382 -257 -71 27 -105 91 -90 172 6 33 43 74 275 308 l269 270 -35 55 c-43 67
-108 202 -125 258 -7 23 -15 42 -18 42 -3 0 -109 -103 -236 -229 -244 -243
-265 -258 -337 -242 -50 12 -78 32 -99 73 -23 44 -25 99 -5 136 8 15 148 160
310 322 l296 295 0 394 c0 374 -1 397 -20 436 -23 48 -81 85 -131 84 -19 0
-441 -149 -939 -330z"/>
<path d="M2730 1695 l0 -175 -188 0 c-206 0 -267 -10 -356 -58 -229 -123 -341
-478 -176 -562 39 -20 55 -20 1948 -20 2096 0 1990 -3 2164 60 272 99 494 322
590 594 31 86 58 223 58 292 l0 44 -490 0 -490 0 -2 -172 -3 -173 -1152 -3
-1153 -2 -2 172 -3 173 -372 3 -373 2 0 -175z"/>
</g>
</svg>
