<svg width="30" height="30" viewBox="0 0 30 30" fill="none" xmlns="http://www.w3.org/2000/svg">
<circle cx="15" cy="15" r="15" fill="#CCFE00"/>
<mask id="mask0_5_131" style="mask-type:alpha" maskUnits="userSpaceOnUse" x="0" y="0" width="30" height="30">
<circle cx="15" cy="15" r="15" fill="#EF15B5"/>
</mask>
<g mask="url(#mask0_5_131)">
<path fill-rule="evenodd" clip-rule="evenodd" d="M18.6599 -16.3136C18.6908 -16.1221 18.6962 -15.9308 18.6939 -15.7655C18.6623 -13.4913 17.8319 -11.3151 17.1036 -9.53582C15.2355 -4.97171 12.8515 -0.543356 10.4852 3.77514C10.414 4.49166 10.3526 5.20972 10.2978 5.92711C10.0414 9.2798 9.93436 12.6926 10.0249 16.0629C10.8131 15.0293 11.5699 13.9994 12.281 12.9015C13.7417 10.6464 15.1026 8.40326 16.0485 6.03131C16.0444 6.04155 16.069 5.97095 16.1462 5.75622C16.2094 5.58031 16.2927 5.35143 16.3742 5.13997C16.4431 4.96109 16.5475 4.69616 16.6481 4.50905C16.6705 4.46749 16.7358 4.34656 16.8388 4.22056C16.8804 4.16955 17.0141 4.0084 17.2382 3.87342C17.4689 3.73438 18.1107 3.46013 18.7951 3.87241C19.3266 4.1926 19.4558 4.7007 19.4804 4.79734L19.4804 4.7976C19.5229 4.96436 19.5277 5.10271 19.5288 5.16265C19.5311 5.29457 19.5172 5.40952 19.5092 5.46909C19.4112 6.20464 19.124 6.86914 18.9047 7.35513C18.8603 7.45344 18.8185 7.54494 18.7793 7.63085C18.5969 8.03068 18.4696 8.30969 18.3888 8.59289C17.5658 11.4803 17.6216 14.875 17.7408 18.1526C17.8085 20.0138 17.9391 21.9134 18.3916 23.5422C18.4086 23.6036 18.4428 23.7359 18.4777 23.8708C18.4993 23.9543 18.5211 24.0389 18.5393 24.1083C18.5572 24.1766 18.5727 24.2343 18.5849 24.2789C18.6553 24.4527 18.694 24.6427 18.694 24.8417C18.694 24.8756 18.693 24.9371 18.6844 25.0133C18.6784 25.0661 18.6577 25.2418 18.5682 25.4469C18.5001 25.6027 18.1741 26.2528 17.3492 26.3393C16.6429 26.4133 16.208 25.9836 16.1392 25.9156L16.1378 25.9143C16.0101 25.7881 15.9353 25.668 15.9093 25.6253C15.8748 25.5687 15.8508 25.5208 15.8373 25.4928C15.8104 25.4367 15.7922 25.39 15.7838 25.368C15.7543 25.2906 15.7314 25.212 15.7223 25.1809L15.722 25.18C15.6964 25.092 15.6655 24.9761 15.6376 24.8699C15.6077 24.7561 15.5806 24.6509 15.5581 24.5633C15.5322 24.463 15.5123 24.3857 15.501 24.3451C14.9454 22.3449 14.8108 20.1328 14.7428 18.2616C14.7022 17.145 14.6643 15.9513 14.6727 14.726C13.6292 16.3148 12.4735 17.808 11.3531 19.2556C10.9566 19.7678 10.5646 20.2743 10.1836 20.7773C10.0861 20.9059 9.82589 21.2374 9.3829 21.4151C9.11752 21.5215 8.75471 21.5839 8.35746 21.4721C7.97034 21.3632 7.70996 21.1335 7.5556 20.9452C7.28967 20.6209 7.20989 20.2663 7.18344 20.1423C7.1462 19.9677 7.13019 19.7979 7.12197 19.6663C7.10538 19.4006 7.1112 19.1171 7.11665 18.919C7.11818 18.8635 7.11952 18.8199 7.12072 18.781C7.12208 18.7367 7.12326 18.6984 7.12431 18.6557C7.12558 18.6038 7.12551 18.5817 7.1256 18.5785C6.96983 15.7662 6.95685 12.9182 7.05845 10.091C6.44375 11.2509 5.82767 12.409 5.21204 13.5661C1.87732 19.8341 -1.44382 26.0767 -4.45776 32.4575C-4.48011 32.5048 -4.50232 32.5518 -4.52438 32.5985C-5.17369 33.9719 -5.69208 35.0685 -5.69208 36.129C-5.69208 36.9574 -6.36365 37.629 -7.19208 37.629C-8.0205 37.629 -8.69208 36.9574 -8.69208 36.129C-8.69208 34.3611 -7.88638 32.6754 -7.31264 31.475C-7.26328 31.3717 -7.21564 31.2721 -7.17038 31.1762C-4.12303 24.7246 -0.76193 18.4073 2.57349 12.1382C3.25505 10.8572 3.93554 9.57815 4.61206 8.30042C5.51991 6.5858 6.44977 4.89105 7.37586 3.20319C7.4383 3.08939 7.50073 2.97561 7.56313 2.86186C8.01157 -1.32125 8.83643 -5.66716 10.7163 -9.59089C11.914 -12.0908 13.623 -14.3485 15.2165 -16.3794C15.2626 -16.4381 15.3054 -16.4987 15.3675 -16.5863C15.3944 -16.6244 15.4249 -16.6675 15.4609 -16.7179L15.4659 -16.7249C15.5474 -16.8389 15.7133 -17.0711 15.9067 -17.2552C15.9884 -17.333 16.2332 -17.561 16.611 -17.6757C16.8283 -17.7416 17.1335 -17.783 17.4758 -17.692C17.8269 -17.5987 18.0899 -17.4 18.2667 -17.1938C18.5674 -16.8431 18.6374 -16.4532 18.6599 -16.3136Z" fill="#EF15B5"/>
<path d="M21 6.99999C21 10.6329 21.1071 14.2569 21.1394 17.8836C21.1493 18.9937 21.1394 20.1048 21.1394 21.2149C21.1394 21.507 21.2852 22.708 21.1084 22.9737C21.0137 23.1161 21.0182 22.639 21.1084 22.5185C21.4299 22.089 21.9141 21.7381 22.301 21.4632C24.5834 19.8422 27.0748 18.595 29.5805 17.7595C33.4376 16.4733 38.0004 15.8568 41.9401 16.9732C42.5211 17.1379 43.6419 17.2694 44 17.9871" stroke="#EF15B5" stroke-width="3" stroke-linecap="round"/>
</g>
</svg>
